<svg width="16" height="16" viewBox="0 0 16 16" fill="none" xmlns="http://www.w3.org/2000/svg">
<path d="M14.4058 0.448542L8 6.85429L1.59425 0.448542C1.44018 0.307556 1.23766 0.231449 1.02887 0.236075C0.820084 0.240701 0.621132 0.325704 0.47346 0.473376C0.325788 0.621048 0.240785 0.82 0.236159 1.02879C0.231533 1.23758 0.30764 1.4401 0.448626 1.59417L6.85113 7.99992L0.447001 14.404C0.368761 14.4786 0.306217 14.5681 0.263044 14.6671C0.219872 14.7662 0.196942 14.8729 0.195604 14.981C0.194265 15.0891 0.214545 15.1963 0.25525 15.2964C0.295956 15.3966 0.356266 15.4875 0.432635 15.564C0.509004 15.6405 0.599892 15.7009 0.699954 15.7418C0.800017 15.7826 0.907236 15.8031 1.01531 15.8019C1.12338 15.8007 1.23013 15.7779 1.32927 15.7349C1.42841 15.6918 1.51795 15.6294 1.59263 15.5513L8 9.14717L14.4058 15.5529C14.5598 15.6939 14.7623 15.77 14.9711 15.7654C15.1799 15.7608 15.3789 15.6758 15.5265 15.5281C15.6742 15.3804 15.7592 15.1815 15.7638 14.9727C15.7685 14.7639 15.6924 14.5614 15.5514 14.4073L9.14563 8.00154L15.5514 1.59417C15.6296 1.5196 15.6922 1.43015 15.7353 1.33107C15.7785 1.23199 15.8014 1.12528 15.8028 1.01721C15.8041 0.909135 15.7838 0.801887 15.7431 0.701766C15.7024 0.601646 15.6421 0.510673 15.5657 0.434195C15.4894 0.357718 15.3985 0.297279 15.2984 0.256431C15.1984 0.215584 15.0911 0.195153 14.9831 0.196338C14.875 0.197523 14.7683 0.220301 14.6691 0.263333C14.57 0.306366 14.4804 0.368783 14.4058 0.446917V0.448542Z" fill="#F2F2F2"/>
</svg>
