<svg width="52" height="48" viewBox="0 0 52 48" fill="none" xmlns="http://www.w3.org/2000/svg">
<path d="M45.0643 16.3906C45.7757 15.7585 45.6477 14.9703 44.7229 14.6862L41.4364 13.5854C41.2166 13.5157 41.0137 13.401 40.8408 13.2485C40.6679 13.096 40.5288 12.9092 40.4324 12.7C40.336 12.4907 40.2843 12.2637 40.2809 12.0334C40.2774 11.8032 40.3221 11.5747 40.4121 11.3626L41.6783 8.14559C42.034 7.24368 41.5431 6.62584 40.5828 6.78207L37.1612 7.336C36.939 7.37418 36.7113 7.36671 36.4921 7.31403C36.2729 7.26135 36.0668 7.16458 35.8863 7.02963C35.7059 6.89468 35.5549 6.7244 35.4426 6.5292C35.3304 6.334 35.2592 6.11798 35.2334 5.89437L34.8564 2.45717C34.7497 1.49845 34.0312 1.18598 33.2559 1.74701L30.4816 3.82069C30.3009 3.95847 30.0937 4.05766 29.8729 4.11209C29.6522 4.16651 29.4225 4.175 29.1984 4.13703C28.9742 4.09906 28.7602 4.01545 28.5698 3.89139C28.3793 3.76732 28.2165 3.60547 28.0914 3.41589L26.1565 0.568134C26.0825 0.388388 25.9532 0.236796 25.7872 0.135273C25.6212 0.033749 25.4272 -0.0124458 25.2331 0.00336611C25.0391 0.019178 24.8552 0.0961773 24.7079 0.223233C24.5606 0.350288 24.4576 0.520817 24.4137 0.710166L22.927 3.83489C22.8292 4.03805 22.6909 4.21922 22.5207 4.36736C22.3505 4.51551 22.1519 4.62753 21.937 4.69662C21.722 4.76571 21.4953 4.79042 21.2705 4.76925C21.0457 4.74808 20.8275 4.68146 20.6293 4.57346L17.5705 2.92588C16.7169 2.47137 16.0482 2.88327 16.0909 3.84909L16.226 7.30759C16.2357 7.53446 16.199 7.76092 16.118 7.97311C16.037 8.18529 15.9134 8.37875 15.7549 8.54162C15.5965 8.7045 15.4063 8.83337 15.1962 8.92035C14.9861 9.00734 14.7605 9.0506 14.533 9.0475L11.0687 9.00489C10.1013 9.00489 9.70292 9.66534 10.1866 10.5104L11.9152 13.4931C12.0301 13.6902 12.103 13.9088 12.1292 14.1354C12.1555 14.3619 12.1345 14.5913 12.0678 14.8094C12.001 15.0274 11.8897 15.2294 11.7411 15.4025C11.5924 15.5756 11.4095 15.7162 11.2039 15.8154L8.13794 17.399C7.93758 17.44 7.75667 17.5465 7.62391 17.7019C7.49116 17.8572 7.41417 18.0523 7.40518 18.2563C7.39619 18.4602 7.45571 18.6614 7.57429 18.8277C7.69287 18.9941 7.86371 19.1161 8.05969 19.1744L10.9834 21.028C11.1772 21.1477 11.3443 21.306 11.474 21.4931C11.6038 21.6802 11.6935 21.892 11.7376 22.1153C11.7817 22.3386 11.7791 22.5686 11.7301 22.7908C11.6811 23.0131 11.5867 23.2228 11.4529 23.407L9.45395 26.2477C8.89198 26.9862 9.24766 27.6964 10.1938 27.7674L13.6438 28.0515C13.8708 28.0687 14.0918 28.1322 14.2932 28.238C14.4946 28.3438 14.6721 28.4898 14.8148 28.6668C14.9575 28.8439 15.0623 29.0483 15.1227 29.2673C15.1831 29.4864 15.1979 29.7155 15.1661 29.9405L14.7109 33.3777C14.5828 34.3435 15.2088 34.7981 16.098 34.4359L19.2849 33.0866C19.493 32.9943 19.7181 32.946 19.9458 32.9448C20.1736 32.9436 20.3992 32.9894 20.6083 33.0795C20.8174 33.1695 21.0056 33.3018 21.1611 33.468C21.3165 33.6343 21.4358 33.8308 21.5114 34.0453L22.7065 37.2978C23.0337 38.2068 23.8091 38.3347 24.428 37.589L26.6189 34.9117C26.7609 34.7341 26.9379 34.5876 27.1391 34.4814C27.3402 34.3751 27.5611 34.3113 27.788 34.294C28.0149 34.2767 28.2429 34.3062 28.4579 34.3807C28.6729 34.4552 28.8702 34.5731 29.0375 34.727L31.6055 37.0564C32.3169 37.7026 33.0709 37.4612 33.263 36.5095L33.9743 33.1221C34.0181 32.8988 34.1075 32.687 34.237 32.4998C34.3665 32.3127 34.5332 32.1541 34.7268 32.0342C34.9204 31.9142 35.1367 31.8354 35.3622 31.8026C35.5876 31.7699 35.8174 31.7839 36.0373 31.8438L39.3735 32.6676C40.3125 32.909 40.8602 32.348 40.5899 31.4177L39.6296 28.1225C39.5646 27.9047 39.5453 27.6758 39.5728 27.4502C39.6004 27.2245 39.6742 27.007 39.7896 26.8111C39.9051 26.6152 40.0597 26.4452 40.2439 26.3116C40.4281 26.178 40.6379 26.0837 40.8602 26.0346L44.2321 25.2463C45.1782 25.0262 45.3987 24.2734 44.73 23.5704L42.3256 21.0777C42.1671 20.9147 42.0437 20.7209 41.9632 20.5084C41.8826 20.2959 41.8465 20.0692 41.8572 19.8422C41.8679 19.6153 41.925 19.3929 42.0252 19.1889C42.1253 18.9849 42.2663 18.8035 42.4394 18.656L45.0643 16.3906Z" fill="url(#paint0_linear_238_654)"/>
<path d="M40.8603 29.2517L41.8206 32.5681C42.0909 33.4984 41.5432 34.0595 40.6042 33.818L37.2466 32.9516C37.0268 32.8929 36.7972 32.88 36.5721 32.9138C36.3471 32.9475 36.1314 33.0272 35.9386 33.1478C35.7457 33.2683 35.5798 33.4273 35.4511 33.6147C35.3225 33.8021 35.2339 34.0139 35.1908 34.237L34.5933 37.1487L44.3957 48L45.1711 41.3813L52.0001 41.1895L40.7892 28.7546C40.7889 28.9228 40.8128 29.0902 40.8603 29.2517Z" fill="url(#paint1_linear_238_654)"/>
<path d="M18.0542 34.4004L14.8673 35.7497C13.9781 36.1332 13.3521 35.6573 13.4802 34.6915L13.9425 31.2472C13.9743 31.0217 13.9593 30.792 13.8985 30.5725C13.8376 30.353 13.7322 30.1483 13.5888 29.9711C13.4454 29.794 13.267 29.6481 13.0647 29.5427C12.8625 29.4373 12.6407 29.3745 12.4131 29.3582L11.9152 29.3156L0 40.0675L6.62271 40.8486L6.85034 47.6591L20.3447 35.5082L20.2878 35.352C20.2107 35.1379 20.0901 34.9419 19.9337 34.7765C19.7773 34.611 19.5884 34.4795 19.3788 34.3901C19.1691 34.3008 18.9433 34.2556 18.7154 34.2574C18.4875 34.2592 18.2624 34.3078 18.0542 34.4004Z" fill="url(#paint2_linear_238_654)"/>
<defs>
<linearGradient id="paint0_linear_238_654" x1="8.1535" y1="27.7623" x2="47.3551" y2="27.6544" gradientUnits="userSpaceOnUse">
<stop stop-color="#F1AA3C"/>
<stop offset="0.270896" stop-color="#EE8031"/>
<stop offset="0.991783" stop-color="#EB3861"/>
</linearGradient>
<linearGradient id="paint1_linear_238_654" x1="34.9354" y1="42.7877" x2="52.8383" y2="42.7432" gradientUnits="userSpaceOnUse">
<stop stop-color="#F1AA3C"/>
<stop offset="0.270896" stop-color="#EE8031"/>
<stop offset="0.991783" stop-color="#EB3861"/>
</linearGradient>
<linearGradient id="paint2_linear_238_654" x1="0.399897" y1="42.6911" x2="21.3243" y2="42.6273" gradientUnits="userSpaceOnUse">
<stop stop-color="#F1AA3C"/>
<stop offset="0.270896" stop-color="#EE8031"/>
<stop offset="0.991783" stop-color="#EB3861"/>
</linearGradient>
</defs>
</svg>
