<svg width="35" height="47" viewBox="0 0 35 47" fill="none" xmlns="http://www.w3.org/2000/svg">
<path d="M16.9205 36.1642C16.851 36.2284 16.7815 36.2927 16.7061 36.3511C16.6308 36.4095 16.5555 36.4855 16.4801 36.5439L15.9934 36.9119L12.5513 44.0326L11.8675 39.9436L12.8874 38.2963L12.5108 38.3722C12.1921 38.4248 11.8618 38.4657 11.5315 38.4891C11.3518 38.4891 11.1664 38.4891 10.9868 38.4891C10.2958 38.4884 9.60734 38.4061 8.93543 38.2437L9.96689 39.9261L9.32368 44.1027L5.51076 36.5614C5.33692 36.4212 5.16887 36.2752 5.00083 36.1175L4.93129 36.1817C1.23427 39.4062 0.254967 44.3947 0 47H21.6142C20.9015 39.3478 17.7376 36.7191 16.9205 36.1642Z" fill="url(#paint0_linear_238_614)"/>
<path d="M11.01 21.3737C9.38826 21.368 7.80125 21.8475 6.44999 22.7515C5.09874 23.6556 4.04402 24.9436 3.41941 26.4523C2.79481 27.9611 2.6284 29.6228 2.94128 31.2269C3.25416 32.8311 4.03224 34.3055 5.17699 35.4636C6.32174 36.6217 7.78166 37.4113 9.37187 37.7323C10.9621 38.0534 12.611 37.8916 14.1099 37.2673C15.6088 36.643 16.8902 35.5843 17.7918 34.2254C18.6935 32.8665 19.1748 31.2684 19.1748 29.6335C19.1733 27.4484 18.3135 25.3528 16.7835 23.805C15.2534 22.2571 13.1776 21.383 11.01 21.3737Z" fill="url(#paint1_linear_238_614)"/>
<path d="M34.4436 41.5616C34.4668 41.5455 34.4854 41.5235 34.4976 41.4979C34.5097 41.4723 34.5151 41.4439 34.5131 41.4156C34.5132 41.3871 34.505 41.3592 34.4896 41.3353C34.4742 41.3114 34.4521 41.2926 34.4262 41.2812C34.4262 41.2812 33.0413 40.5569 32.6878 39.5872C33.1848 40.045 33.8145 40.3296 34.4842 40.3992C34.5125 40.4053 34.542 40.4037 34.5695 40.3944C34.597 40.3852 34.6216 40.3687 34.6406 40.3466C34.6548 40.3207 34.6623 40.2915 34.6623 40.2619C34.6623 40.2323 34.6548 40.2031 34.6406 40.1772C33.9666 38.2861 33.4946 36.3279 33.2325 34.3358C33.0239 33.1091 32.8211 31.9116 32.5429 30.831C32.4529 30.374 32.311 29.9291 32.1199 29.505C31.9403 29.0099 31.7009 28.5391 31.4072 28.103C31.0591 27.5886 30.6137 27.1484 30.0967 26.8076C29.5796 26.4668 29.001 26.2321 28.3939 26.1169C27.7699 25.9073 27.1163 25.8008 26.4585 25.8015C25.1861 25.7936 23.9486 26.2197 22.9469 27.0107C21.9525 27.6763 21.2031 28.6534 20.8145 29.7912C20.4757 30.535 20.2361 31.3206 20.1017 32.1277C20.063 32.346 20.0378 32.5664 20.0264 32.7878C19.98 33.0565 19.9337 33.3311 19.8931 33.6173C19.7457 35.2122 19.8159 36.8199 20.1017 38.3956C21.1853 40.148 22.2689 42.8759 22.6456 47.035H34.9999C34.8686 45.2935 34.4454 43.587 33.7482 41.9881C33.9896 41.8624 34.2219 41.7199 34.4436 41.5616ZM30.6481 40.5686C30.5496 40.6913 28.6141 41.9588 28.6141 41.9588L29.5529 43.2673L26.5454 45.6506L23.5322 43.2673L24.4883 41.9588C24.4883 41.9588 22.5529 40.6913 22.4544 40.5686C22.2805 40.3466 23.3178 39.3477 23.3178 39.3477L26.5512 45.6448L29.7847 39.3477C29.7847 39.3477 30.8219 40.3466 30.6481 40.5686Z" fill="url(#paint2_linear_238_614)"/>
<path d="M24.8362 0H2.95537C2.38212 0 1.83236 0.229556 1.42701 0.638169C1.02167 1.04678 0.793945 1.60098 0.793945 2.17885V14.0544C0.793945 14.6323 1.02167 15.1865 1.42701 15.5951C1.83236 16.0037 2.38212 16.2333 2.95537 16.2333H11.7517L11.462 19.9659L14.6781 16.2333H24.8362C25.4094 16.2333 25.9592 16.0037 26.3645 15.5951C26.7699 15.1865 26.9976 14.6323 26.9976 14.0544V2.17885C26.9976 1.60098 26.7699 1.04678 26.3645 0.638169C25.9592 0.229556 25.4094 0 24.8362 0V0ZM14.8982 10.5145H3.97524C3.87534 10.5145 3.77954 10.4745 3.7089 10.4033C3.63826 10.3321 3.59858 10.2356 3.59858 10.1348C3.59857 10.0336 3.63807 9.93642 3.70854 9.86428C3.77902 9.79215 3.87481 9.75085 3.97524 9.74932H14.8982C14.9992 9.75082 15.0956 9.79193 15.167 9.8639C15.2384 9.93588 15.2792 10.0331 15.2807 10.1348C15.2792 10.2361 15.2382 10.3327 15.1667 10.4037C15.0951 10.4747 14.9987 10.5146 14.8982 10.5145ZM23.5497 7.88591H3.97524C3.87534 7.88591 3.77954 7.8459 3.7089 7.7747C3.63826 7.70349 3.59858 7.60691 3.59858 7.50621C3.59857 7.40497 3.63807 7.30778 3.70854 7.23565C3.77902 7.16351 3.87481 7.12221 3.97524 7.12068H23.5497C23.6502 7.12221 23.746 7.16351 23.8164 7.23565C23.8869 7.30778 23.9264 7.40497 23.9264 7.50621C23.9264 7.60691 23.8867 7.70349 23.8161 7.7747C23.7454 7.8459 23.6496 7.88591 23.5497 7.88591ZM23.5497 5.24559H3.97524C3.87534 5.24559 3.77954 5.20559 3.7089 5.13438C3.63826 5.06317 3.59858 4.9666 3.59858 4.8659C3.59858 4.7652 3.63826 4.66862 3.7089 4.59741C3.77954 4.52621 3.87534 4.4862 3.97524 4.4862H23.5497C23.6496 4.4862 23.7454 4.52621 23.8161 4.59741C23.8867 4.66862 23.9264 4.7652 23.9264 4.8659C23.9264 4.9666 23.8867 5.06317 23.8161 5.13438C23.7454 5.20559 23.6496 5.24559 23.5497 5.24559Z" fill="url(#paint3_linear_238_614)"/>
<path d="M32.9545 10.5145H27.9769V14.8021C27.9769 15.4218 27.7327 16.0161 27.298 16.4543C26.8633 16.8925 26.2738 17.1387 25.659 17.1387H19.082V19.9951C19.082 20.3561 19.2243 20.7023 19.4775 20.9575C19.7307 21.2128 20.0741 21.3562 20.4322 21.3562H27.1077L29.1242 23.6928L28.9388 21.3562H32.9545C33.3126 21.3562 33.6561 21.2128 33.9093 20.9575C34.1625 20.7023 34.3047 20.3561 34.3047 19.9951V11.8873C34.3062 11.7075 34.2724 11.5293 34.2053 11.3628C34.1381 11.1963 34.0389 11.0449 33.9134 10.9173C33.7879 10.7897 33.6385 10.6884 33.4739 10.6192C33.3094 10.5501 33.1328 10.5145 32.9545 10.5145Z" fill="url(#paint4_linear_238_614)"/>
<defs>
<linearGradient id="paint0_linear_238_614" x1="0.42485" y1="44.0527" x2="22.6545" y2="43.9313" gradientUnits="userSpaceOnUse">
<stop stop-color="#F1AA3C"/>
<stop offset="0.270896" stop-color="#EE8031"/>
<stop offset="0.991783" stop-color="#EB3861"/>
</linearGradient>
<linearGradient id="paint1_linear_238_614" x1="3.10947" y1="33.4192" x2="19.9639" y2="33.3732" gradientUnits="userSpaceOnUse">
<stop stop-color="#F1AA3C"/>
<stop offset="0.270896" stop-color="#EE8031"/>
<stop offset="0.991783" stop-color="#EB3861"/>
</linearGradient>
<linearGradient id="paint2_linear_238_614" x1="20.1165" y1="41.2843" x2="35.731" y2="41.2536" gradientUnits="userSpaceOnUse">
<stop stop-color="#F1AA3C"/>
<stop offset="0.270896" stop-color="#EE8031"/>
<stop offset="0.991783" stop-color="#EB3861"/>
</linearGradient>
<linearGradient id="paint3_linear_238_614" x1="1.309" y1="14.5585" x2="28.2592" y2="14.4613" gradientUnits="userSpaceOnUse">
<stop stop-color="#F1AA3C"/>
<stop offset="0.270896" stop-color="#EE8031"/>
<stop offset="0.991783" stop-color="#EB3861"/>
</linearGradient>
<linearGradient id="paint4_linear_238_614" x1="19.3812" y1="20.1237" x2="35.0377" y2="20.074" gradientUnits="userSpaceOnUse">
<stop stop-color="#F1AA3C"/>
<stop offset="0.270896" stop-color="#EE8031"/>
<stop offset="0.991783" stop-color="#EB3861"/>
</linearGradient>
</defs>
</svg>
