<svg width="18" height="19" viewBox="0 0 18 19" fill="none" xmlns="http://www.w3.org/2000/svg">
<path d="M9.11123 6.50194C7.51831 6.50194 6.21836 7.84672 6.21836 9.49457C6.21836 11.1424 7.51831 12.4872 9.11123 12.4872C10.7042 12.4872 12.0041 11.1424 12.0041 9.49457C12.0041 7.84672 10.7042 6.50194 9.11123 6.50194ZM17.7877 9.49457C17.7877 8.25531 17.7985 7.02728 17.7313 5.79027C17.664 4.35345 17.3471 3.07827 16.3315 2.02759C15.3137 0.974672 14.0832 0.649142 12.6942 0.579546C11.4963 0.50995 10.3092 0.521176 9.1134 0.521176C7.91545 0.521176 6.72836 0.50995 5.53258 0.579546C4.14365 0.649142 2.91098 0.976917 1.89532 2.02759C0.877502 3.08051 0.562823 4.35345 0.495547 5.79027C0.428271 7.02952 0.439122 8.25756 0.439122 9.49457C0.439122 10.7316 0.428271 11.9619 0.495547 13.1989C0.562823 14.6357 0.879672 15.9109 1.89532 16.9615C2.91315 18.0145 4.14365 18.34 5.53258 18.4096C6.73053 18.4792 7.91762 18.468 9.1134 18.468C10.3114 18.468 11.4985 18.4792 12.6942 18.4096C14.0832 18.34 15.3158 18.0122 16.3315 16.9615C17.3493 15.9086 17.664 14.6357 17.7313 13.1989C17.8007 11.9619 17.7877 10.7338 17.7877 9.49457ZM9.11123 14.0991C6.64806 14.0991 4.66016 12.0427 4.66016 9.49457C4.66016 6.94646 6.64806 4.89001 9.11123 4.89001C11.5744 4.89001 13.5623 6.94646 13.5623 9.49457C13.5623 12.0427 11.5744 14.0991 9.11123 14.0991ZM13.7446 5.7768C13.1695 5.7768 12.7051 5.29636 12.7051 4.70143C12.7051 4.10649 13.1695 3.62606 13.7446 3.62606C14.3197 3.62606 14.7841 4.10649 14.7841 4.70143C14.7843 4.8427 14.7575 4.98261 14.7053 5.11316C14.6532 5.24371 14.5766 5.36233 14.48 5.46222C14.3835 5.56212 14.2688 5.64132 14.1426 5.6953C14.0164 5.74928 13.8812 5.77697 13.7446 5.7768Z" fill="#1D1D1F"/>
</svg>
