<svg width="42" height="42" viewBox="0 0 42 42" fill="none" xmlns="http://www.w3.org/2000/svg">
<rect y="0.625" width="42" height="41.1923" rx="11.3077" fill="url(#paint0_linear_121_1621)"/>
<path d="M16.3094 14.973C16.3094 16.1793 15.9549 17.1288 15.2458 17.8216C14.5367 18.5104 13.5566 18.8547 12.3055 18.8547C10.9402 18.8547 9.87253 18.4533 9.1023 17.6505C8.33207 16.8436 7.94696 15.7188 7.94696 14.2762C7.94696 12.8498 8.33004 11.7352 9.09619 10.9324C9.86234 10.1296 10.9138 9.72816 12.2504 9.72816C13.3141 9.72816 14.2127 10.0134 14.9462 10.584C15.6798 11.1545 16.1036 11.8901 16.2177 12.7907H13.9987C13.8887 12.3995 13.6788 12.0918 13.3691 11.8677C13.0594 11.6435 12.6885 11.5315 12.2566 11.5315C11.6208 11.5315 11.1236 11.7699 10.765 12.2467C10.4105 12.7235 10.2332 13.3898 10.2332 14.2456C10.2332 15.1136 10.4247 15.7983 10.8078 16.2995C11.1909 16.8008 11.7064 17.0514 12.3544 17.0514C12.8597 17.0514 13.2754 16.9149 13.6014 16.6419C13.9274 16.3688 14.1067 16.0102 14.1393 15.566L14.1454 15.4315H12.5316V13.891H16.3094V14.973ZM23.4676 16.8925V18.7019H17.422V9.88098H23.4676V11.6904H19.6654V13.4448H23.2415V15.0953H19.6654V16.8925H23.4676ZM29.0181 18.7019H26.7808V11.6904H24.3479V9.88098H31.4511V11.6904H29.0181V18.7019ZM13.5831 30.7019L13.0268 28.7641H10.1415L9.57911 30.7019H7.29288L10.2576 21.881H13.0023L15.9671 30.7019H13.5831ZM11.5597 23.7515L10.5755 27.1503H12.5867L11.6086 23.7515H11.5597ZM16.8168 21.881H20.6374C21.5869 21.881 22.353 22.1663 22.9358 22.7368C23.5226 23.3033 23.8161 24.0592 23.8161 25.0047C23.8161 25.942 23.5104 26.6959 22.8991 27.2665C22.2878 27.8329 21.4891 28.1161 20.5029 28.1161H19.0602V30.7019H16.8168V21.881ZM19.0602 23.5987V26.429H20.0322C20.5131 26.429 20.8859 26.3067 21.1508 26.0622C21.4157 25.8177 21.5482 25.4672 21.5482 25.0108C21.5482 24.5544 21.4157 24.2059 21.1508 23.9655C20.89 23.721 20.5212 23.5987 20.0444 23.5987H19.0602ZM24.8125 21.881H28.633C29.5826 21.881 30.3487 22.1663 30.9315 22.7368C31.5183 23.3033 31.8117 24.0592 31.8117 25.0047C31.8117 25.942 31.5061 26.6959 30.8948 27.2665C30.2835 27.8329 29.4848 28.1161 28.4985 28.1161H27.0559V30.7019H24.8125V21.881ZM27.0559 23.5987V26.429H28.0279C28.5087 26.429 28.8816 26.3067 29.1465 26.0622C29.4114 25.8177 29.5439 25.4672 29.5439 25.0108C29.5439 24.5544 29.4114 24.2059 29.1465 23.9655C28.8857 23.721 28.5169 23.5987 28.0401 23.5987H27.0559Z" fill="white"/>
<defs>
<linearGradient id="paint0_linear_121_1621" x1="-3.97076" y1="10.2666" x2="43.6149" y2="39.6288" gradientUnits="userSpaceOnUse">
<stop stop-color="#BD62D5"/>
<stop offset="0.998622" stop-color="#623EE8"/>
</linearGradient>
</defs>
</svg>
