<svg width="52" height="48" viewBox="0 0 52 48" fill="none" xmlns="http://www.w3.org/2000/svg">
<path d="M51.0913 29.158L31.7879 9.93712C31.464 9.59487 31.0745 9.32329 30.6434 9.13905C30.2123 8.9548 29.7486 8.86177 29.2807 8.86566L18.7814 8.95712C17.4317 7.24202 15.8748 5.70556 14.1473 4.38383C10.596 1.69212 6.67732 0 3.89943 0C2.04321 0 1.10221 0.744794 0.644598 1.36546C-0.367301 2.71784 -0.161054 4.80196 1.23111 7.24541C2.78481 9.79406 4.81171 12.0128 7.19938 13.7787C9.04273 15.2204 11.0753 16.3946 13.2386 17.2675L13.3094 25.4145C13.3183 26.3395 13.6892 27.2231 14.3407 27.871L14.3858 27.9298L33.7214 47.1637C35.4423 48.8755 37.2212 47.8824 38.8776 46.1445L50.1696 34.4369C51.8583 32.6991 52.8057 30.8763 51.0913 29.158ZM19.3357 15.7452C19.0953 15.9777 18.809 16.1561 18.4958 16.2687C18.1826 16.3813 17.8494 16.4256 17.5182 16.3985C17.4977 16.2689 17.487 16.1378 17.4859 16.0065C17.4892 15.4297 17.6806 14.8703 18.0304 14.4153C18.3801 13.9603 18.8686 13.6354 19.4195 13.4912C19.7224 14.4843 19.7031 15.2683 19.3357 15.7452ZM8.20484 12.361C6.00462 10.7381 4.12994 8.70478 2.68129 6.36995C1.68872 4.63209 1.42447 3.14904 1.9852 2.40425C2.2375 2.15222 2.54174 1.95999 2.87607 1.84138C3.2104 1.72277 3.5665 1.68072 3.91877 1.71825C6.34217 1.71825 9.87415 3.27317 13.1419 5.78848C14.3916 6.73889 15.5504 7.80634 16.603 8.97672C15.693 8.98707 14.8242 9.363 14.1874 10.022C13.5506 10.681 13.1977 11.5692 13.2063 12.4916V15.3663C11.4285 14.5672 9.74972 13.5584 8.20484 12.361ZM20.0705 18.646C19.4794 18.6447 18.9073 18.4344 18.4527 18.0514C19.3337 17.9381 20.1373 17.484 20.6957 16.784C20.9939 16.3409 21.1943 15.8378 21.2833 15.309C21.3723 14.7802 21.3477 14.2382 21.2113 13.7199C21.7171 13.9892 22.1202 14.4213 22.3575 14.9481C22.5947 15.475 22.6526 16.0668 22.5221 16.6306C22.3915 17.1944 22.0799 17.6983 21.6361 18.063C21.1924 18.4278 20.6417 18.6329 20.0705 18.646Z" fill="url(#paint0_linear_238_665)"/>
<defs>
<linearGradient id="paint0_linear_238_665" x1="1.03369" y1="35.0382" x2="54.5016" y2="34.8792" gradientUnits="userSpaceOnUse">
<stop stop-color="#F1AA3C"/>
<stop offset="0.270896" stop-color="#EE8031"/>
<stop offset="0.991783" stop-color="#EB3861"/>
</linearGradient>
</defs>
</svg>
