<svg width="43" height="30" viewBox="0 0 43 30" fill="none" xmlns="http://www.w3.org/2000/svg">
<path d="M23.7251 0H1.67908C1.49415 0 1.34424 0.149914 1.34424 0.334842V17.8282C1.34424 18.0131 1.49415 18.163 1.67908 18.163H23.7251C23.91 18.163 24.0599 18.0131 24.0599 17.8282V0.334842C24.0599 0.149914 23.91 0 23.7251 0Z" fill="url(#paint0_linear_238_640)"/>
<path d="M42.2229 19.64C42.238 19.6238 42.2493 19.6045 42.2561 19.5835C42.2628 19.5624 42.2648 19.5402 42.2619 19.5182V14.3337C42.2619 14.1315 42.2205 13.9684 42.0415 13.9392C42.0257 13.9258 42.0074 13.9112 41.9855 13.8953L37.2198 10.5932C37.1136 10.5249 36.9984 10.4717 36.8776 10.4349C36.1897 3.6163 32.7524 2.12838 31.995 1.89582C30.4706 1.42826 26.1505 1.60968 26.1505 1.60968C26.0417 1.61493 25.939 1.6614 25.8633 1.73965C25.7875 1.8179 25.7444 1.92207 25.7426 2.03097V10.374C25.7425 10.3937 25.7445 10.4133 25.7487 10.4325C25.7446 10.4521 25.7425 10.4721 25.7426 10.4921V13.9927C25.742 14.0053 25.742 14.0179 25.7426 14.0305C25.7419 14.0427 25.7419 14.0548 25.7426 14.067V19.5195C25.7426 19.5949 25.7646 19.6339 25.8011 19.6522H0.407898C0.300347 19.6522 0.197146 19.6946 0.120754 19.7704C0.0443628 19.8461 0.000963147 19.9489 0 20.0564V23.9284C0.000644117 24.0361 0.0439421 24.1391 0.120403 24.2148C0.196864 24.2906 0.30025 24.333 0.407898 24.3327H41.9125C42.0201 24.333 42.1235 24.2906 42.1999 24.2148C42.2764 24.1391 42.3197 24.0361 42.3204 23.9284V19.7885C42.3204 19.6887 42.2826 19.651 42.2229 19.64Z" fill="url(#paint1_linear_238_640)"/>
<path d="M26.696 9.56674V2.56428C26.696 2.56428 30.5023 2.49123 31.754 2.83337C32.5016 3.03915 35.0415 4.73649 35.8086 9.56674H26.696Z" fill="#F2F2F2"/>
<path d="M13.2426 25.2751C13.2371 26.281 12.8325 27.2436 12.1176 27.9514C11.4028 28.6592 10.4362 29.0542 9.43025 29.0497C8.4242 29.0545 7.45742 28.6596 6.74251 27.9518C6.02759 27.2439 5.62307 26.2811 5.61792 25.2751C5.6234 24.2691 6.02801 23.3065 6.74286 22.5988C7.45771 21.891 8.4243 21.496 9.43025 21.5005C10.4361 21.4963 11.4025 21.8914 12.1173 22.5991C12.8321 23.3068 13.2368 24.2692 13.2426 25.2751Z" fill="url(#paint2_linear_238_640)"/>
<path d="M37.7873 25.2751C37.7818 26.281 37.3772 27.2436 36.6623 27.9514C35.9475 28.6592 34.9809 29.0542 33.9749 29.0497C32.9689 29.0545 32.0021 28.6596 31.2872 27.9518C30.5723 27.2439 30.1678 26.2811 30.1626 25.2751C30.1681 24.2691 30.5727 23.3065 31.2875 22.5988C32.0024 21.891 32.969 21.496 33.9749 21.5005C34.9808 21.4963 35.9472 21.8914 36.662 22.5991C37.3767 23.3068 37.7815 24.2692 37.7873 25.2751Z" fill="url(#paint3_linear_238_640)"/>
<defs>
<linearGradient id="paint0_linear_238_640" x1="1.79074" y1="13.2439" x2="25.1536" y2="13.1636" gradientUnits="userSpaceOnUse">
<stop stop-color="#F1AA3C"/>
<stop offset="0.270896" stop-color="#EE8031"/>
<stop offset="0.991783" stop-color="#EB3861"/>
</linearGradient>
<linearGradient id="paint1_linear_238_640" x1="0.83185" y1="18.1691" x2="44.3573" y2="17.9468" gradientUnits="userSpaceOnUse">
<stop stop-color="#F1AA3C"/>
<stop offset="0.270896" stop-color="#EE8031"/>
<stop offset="0.991783" stop-color="#EB3861"/>
</linearGradient>
<linearGradient id="paint2_linear_238_640" x1="5.76779" y1="27.0051" x2="13.6097" y2="26.9834" gradientUnits="userSpaceOnUse">
<stop stop-color="#F1AA3C"/>
<stop offset="0.270896" stop-color="#EE8031"/>
<stop offset="0.991783" stop-color="#EB3861"/>
</linearGradient>
<linearGradient id="paint3_linear_238_640" x1="30.3125" y1="27.0051" x2="38.1544" y2="26.9834" gradientUnits="userSpaceOnUse">
<stop stop-color="#F1AA3C"/>
<stop offset="0.270896" stop-color="#EE8031"/>
<stop offset="0.991783" stop-color="#EB3861"/>
</linearGradient>
</defs>
</svg>
