<svg width="90" height="137" viewBox="0 0 90 137" fill="none" xmlns="http://www.w3.org/2000/svg">
<g clip-path="url(#clip0_121_1779)">
<path d="M89.9961 18.3135C90.0456 14.9352 89.2954 11.5924 87.8058 8.55302C86.3161 5.51369 84.1283 2.86242 81.4179 0.811774C81.2432 0.672473 81.0319 0.585563 80.809 0.561291C80.5861 0.537018 80.3608 0.576394 80.1597 0.674776C79.9586 0.773159 79.7901 0.926447 79.6741 1.11657C79.558 1.30669 79.4993 1.52572 79.5047 1.74784L79.4812 16.8298L68.0763 23.7474L56.7067 16.7948L56.7303 1.709C56.7362 1.48583 56.6773 1.26566 56.5606 1.07469C56.4439 0.883714 56.2742 0.729983 56.0719 0.631782C55.8695 0.53358 55.6429 0.495043 55.4191 0.520755C55.1952 0.546467 54.9835 0.635346 54.8092 0.776817C51.77 3.06851 49.3888 6.10791 47.9019 9.59325C46.415 13.0786 45.8742 16.8886 46.3331 20.645C46.792 24.4015 48.2348 27.9736 50.5181 31.0069C52.8014 34.0401 55.8459 36.4289 59.3492 37.936L59.2512 99.2504C55.7433 100.744 52.6911 103.122 50.3979 106.147C48.1047 109.171 46.6504 112.738 46.1795 116.492C45.7086 120.246 46.2374 124.056 47.7135 127.545C49.1896 131.034 51.5615 134.079 54.5936 136.379C54.7683 136.518 54.9796 136.605 55.2025 136.629C55.4254 136.653 55.6507 136.614 55.8518 136.516C56.0529 136.417 56.2214 136.264 56.3374 136.074C56.4535 135.884 56.5122 135.665 56.5068 135.442L56.5303 120.357L67.9352 113.416L79.3048 120.364L79.2812 135.45C79.2756 135.672 79.3341 135.891 79.4496 136.081C79.5652 136.271 79.7331 136.424 79.9336 136.523C80.1341 136.622 80.3589 136.661 80.5816 136.638C80.8042 136.615 81.0155 136.529 81.1905 136.39C84.2298 134.099 86.6112 131.06 88.0982 127.575C89.5852 124.09 90.1261 120.28 89.6671 116.524C89.2082 112.767 87.7653 109.196 85.4819 106.163C83.1984 103.13 80.1539 100.741 76.6505 99.2349L76.7486 37.9205C80.6307 36.2669 83.9471 33.5359 86.2976 30.0569C88.6482 26.5779 89.9327 22.4995 89.9961 18.3135Z" fill="#7A7A7A"/>
<path d="M23.9663 62.9535H17.121L17.1837 22.6055L20.1869 17.9057L16.5917 0H9.3505L5.70047 17.8669L8.68793 22.5666L8.6252 62.9224H1.77601C0.846838 62.9224 0.094093 63.7692 0.094093 64.8179V68.0727C0.094093 69.1215 0.842917 69.976 1.77601 69.976H2.16806C0.791433 72.3149 0.0675233 74.9745 0.0705698 77.682L0 123.072C0 130.75 5.48876 136.988 12.2948 137H13.2122C20.0183 137 25.5423 130.785 25.5541 123.11L25.6286 77.7131C25.6464 75.011 24.9387 72.3528 23.5781 70.0109H23.9702C24.8994 70.0109 25.656 69.1603 25.66 68.1116V64.8645C25.6482 63.808 24.8955 62.9574 23.9663 62.9535Z" fill="#7A7A7A"/>
</g>
<defs>
<clipPath id="clip0_121_1779">
<rect width="90" height="137" fill="white"/>
</clipPath>
</defs>
</svg>
