<svg width="34" height="40" viewBox="0 0 34 40" fill="none" xmlns="http://www.w3.org/2000/svg">
<path d="M27.2495 10.1248C27.2495 10.2996 27.2495 10.4729 27.2361 10.6447C27.2227 10.8166 27.2137 10.9899 27.1958 11.1602C27.1705 11.415 27.1347 11.6668 27.0899 11.9172C27.0452 12.1675 26.9796 12.4564 26.9095 12.7201C26.7766 13.2235 26.6041 13.7159 26.3936 14.1925C26.3637 14.2606 26.3324 14.3273 26.3011 14.3954C26.1908 14.6305 26.0715 14.8611 25.9432 15.0872C25.9045 15.1554 25.8657 15.222 25.8254 15.2887C25.3496 16.0837 24.7672 16.8108 24.0942 17.4499C24.0301 17.5092 23.966 17.5699 23.9003 17.6277C23.7885 17.7299 23.6737 17.8276 23.5574 17.9239C23.4813 17.9861 23.4083 18.0484 23.3248 18.1091C23.1518 18.2424 22.9748 18.3708 22.7939 18.4942L22.7149 18.5476C22.4733 18.7075 22.2248 18.8557 21.9693 18.992C21.7397 19.1174 21.5045 19.2344 21.264 19.343L21.2207 19.3623C20.7423 19.5758 20.2477 19.7516 19.7415 19.8882C19.6341 19.9178 19.5253 19.9444 19.4164 19.9711C18.8982 20.0928 18.3712 20.1745 17.8403 20.2155C17.6673 20.2274 17.4928 20.2363 17.3184 20.2407C17.2304 20.2407 17.1424 20.2407 17.0559 20.2407C16.9694 20.2407 16.88 20.2407 16.792 20.2407C16.6175 20.2407 16.4445 20.2274 16.2716 20.2155C15.7401 20.1746 15.2127 20.0929 14.6939 19.9711C14.5851 19.9444 14.4762 19.9178 14.3688 19.8882C13.8627 19.7516 13.3681 19.5758 12.8896 19.3623L12.8464 19.343C12.6316 19.2443 12.4214 19.1406 12.2156 19.032C11.9353 18.8838 11.6624 18.7179 11.3999 18.5431L11.3209 18.4898C11.139 18.3664 10.9615 18.238 10.7886 18.1047L10.5589 17.9239C10.4411 17.8276 10.3263 17.7299 10.2145 17.6277C10.1026 17.5255 9.96841 17.401 9.85061 17.284C9.24849 16.6862 8.72401 16.0158 8.28937 15.2887C8.2491 15.222 8.21033 15.1554 8.17156 15.0872C8.04482 14.8621 7.92403 14.631 7.81369 14.3954L7.72123 14.1925C7.51022 13.7159 7.33721 13.2236 7.2038 12.7201C7.13372 12.4564 7.07258 12.1883 7.02337 11.9172C6.97416 11.6461 6.94434 11.415 6.9175 11.1602C6.90109 10.9899 6.88767 10.8181 6.87873 10.6447C6.86978 10.4714 6.85934 10.2996 6.85934 10.1248C6.85934 9.95 6.84294 9.77521 6.85934 9.60338C6.85934 9.49672 6.85934 9.39303 6.85934 9.28785C6.86867 9.22202 6.88161 9.15675 6.89811 9.09232C6.89811 9.02862 6.92197 8.96493 6.92943 8.90123C6.95328 8.71014 6.98609 8.52201 7.02039 8.33537C7.0681 8.06281 7.13073 7.79617 7.20082 7.53101C7.33548 7.02799 7.50948 6.53617 7.72123 6.06006L7.76746 5.95785C7.78237 5.92378 7.79728 5.88971 7.81369 5.85712C7.92403 5.62159 8.04482 5.39051 8.17156 5.16387C8.21033 5.09721 8.2491 5.02907 8.28937 4.96389C8.76459 4.16757 9.34705 3.43945 10.0206 2.79969L10.2145 2.62045C10.3263 2.51972 10.4411 2.42047 10.5589 2.32418C10.635 2.26049 10.708 2.19827 10.79 2.13902C10.963 2.00373 11.1405 1.87485 11.3224 1.7524L11.4014 1.70055C11.8604 1.39411 12.3442 1.12606 12.8479 0.899157L12.8911 0.888788C13.3696 0.67342 13.8642 0.49513 14.3703 0.355514C14.4777 0.327369 14.5865 0.299224 14.6954 0.274041C15.2139 0.150787 15.7414 0.0690523 16.2731 0.0296239C16.446 0.0162921 16.619 0.00740416 16.7935 0.00296021H17.0574H17.3198C17.4943 0.00296021 17.6688 0.0162921 17.8418 0.0296239C18.3729 0.0691625 18.8999 0.150896 19.4179 0.274041C19.5268 0.299224 19.6356 0.327369 19.743 0.355514C20.2492 0.49513 20.7437 0.67342 21.2222 0.888788L21.2655 0.908045C21.7696 1.13494 22.2539 1.40299 22.7134 1.70944L22.7924 1.76128C22.9733 1.88473 23.1503 2.0136 23.3233 2.14791C23.4023 2.20716 23.4798 2.26937 23.5559 2.33307C23.6722 2.42788 23.787 2.52712 23.8989 2.62933C23.963 2.68711 24.0271 2.74636 24.0897 2.80709C24.7645 3.44599 25.3479 4.17366 25.8239 4.96982C25.8642 5.03499 25.903 5.10313 25.9417 5.16979C26.07 5.39594 26.1893 5.62703 26.2996 5.86305C26.3309 5.92971 26.3623 5.99785 26.3921 6.06599C26.6029 6.54217 26.7759 7.03398 26.9095 7.53694C26.9796 7.80209 27.0407 8.06873 27.0899 8.34129C27.1347 8.59015 27.1705 8.84198 27.1958 9.09825C27.2048 9.17675 27.2107 9.25675 27.2182 9.33674L27.2361 9.61226C27.2435 9.77669 27.2495 9.95 27.2495 10.1248Z" fill="url(#paint0_linear_238_627)"/>
<path d="M6.71021 9.18417L6.73705 9.19899C6.78462 9.22898 6.83447 9.25523 6.88616 9.2775C6.87567 9.26992 6.86471 9.26299 6.85336 9.25676C6.81906 9.2375 6.7609 9.21232 6.71021 9.18417Z" fill="url(#paint1_linear_238_627)"/>
<path d="M6.71021 9.18417C6.75792 9.20787 6.81608 9.23306 6.85932 9.25676C6.82204 9.2375 6.77731 9.21824 6.73555 9.19899L6.71021 9.18417Z" fill="url(#paint2_linear_238_627)"/>
<path d="M33.9985 29.3464V39.8296C33.9985 40.0444 33.912 39.9955 33.7003 39.9955H0.408579C0.201307 39.9955 0 40.0444 0 39.8296V29.3464C0 29.1775 0 29.0086 0.00745581 28.8427C0.118141 26.4411 1.07507 24.1545 2.71093 22.3827C2.75716 22.3323 2.80339 22.282 2.8511 22.2345C3.63497 21.4213 4.55405 20.7483 5.568 20.2451L5.75291 20.1563C6.03225 20.0269 6.31806 19.9104 6.61032 19.8067L6.80567 19.74C7.06811 19.6541 7.33354 19.58 7.60493 19.5178C7.93443 19.8314 8.27983 20.128 8.6398 20.4066C9.55559 21.1201 10.5574 21.7172 11.6221 22.1842C11.8204 22.2716 12.0218 22.3545 12.2186 22.4316C12.9938 22.7311 13.7956 22.9578 14.6134 23.1085C16.3385 23.431 18.1119 23.3977 19.8235 23.0108C19.9368 22.9871 21.5428 22.6004 21.9723 22.4316C22.1423 22.3649 22.3108 22.2183 22.4793 22.1442C23.3084 21.7798 24.0897 21.4835 24.8249 20.7429C24.9159 20.7301 25.0008 20.6897 25.0679 20.6273C25.5534 20.2781 26.0161 19.8986 26.4532 19.4911C30.6285 20.457 33.7793 24.264 33.9955 28.8323C33.9985 28.9938 33.9985 29.1819 33.9985 29.3464Z" fill="url(#paint3_linear_238_627)"/>
<path d="M11.6147 22.1812C10.55 21.7143 9.54812 21.1171 8.63232 20.4037C9.54378 21.1172 10.5417 21.7144 11.6027 22.1812C11.8025 22.2701 12.0053 22.3531 12.2096 22.4301C12.9876 22.7309 13.7924 22.9581 14.6134 23.1085" fill="url(#paint4_linear_238_627)"/>
<defs>
<linearGradient id="paint0_linear_238_627" x1="7.25298" y1="14.7597" x2="28.2317" y2="14.7016" gradientUnits="userSpaceOnUse">
<stop stop-color="#F1AA3C"/>
<stop offset="0.270896" stop-color="#EE8031"/>
<stop offset="0.991783" stop-color="#EB3861"/>
</linearGradient>
<linearGradient id="paint1_linear_238_627" x1="6.71366" y1="9.25222" x2="6.89463" y2="9.25128" gradientUnits="userSpaceOnUse">
<stop stop-color="#F1AA3C"/>
<stop offset="0.270896" stop-color="#EE8031"/>
<stop offset="0.991783" stop-color="#EB3861"/>
</linearGradient>
<linearGradient id="paint2_linear_238_627" x1="6.71314" y1="9.2371" x2="6.8665" y2="9.23623" gradientUnits="userSpaceOnUse">
<stop stop-color="#F1AA3C"/>
<stop offset="0.270896" stop-color="#EE8031"/>
<stop offset="0.991783" stop-color="#EB3861"/>
</linearGradient>
<linearGradient id="paint3_linear_238_627" x1="0.668275" y1="34.4458" x2="35.6351" y2="34.2865" gradientUnits="userSpaceOnUse">
<stop stop-color="#F1AA3C"/>
<stop offset="0.270896" stop-color="#EE8031"/>
<stop offset="0.991783" stop-color="#EB3861"/>
</linearGradient>
<linearGradient id="paint4_linear_238_627" x1="8.74989" y1="22.376" x2="14.9012" y2="22.3386" gradientUnits="userSpaceOnUse">
<stop stop-color="#F1AA3C"/>
<stop offset="0.270896" stop-color="#EE8031"/>
<stop offset="0.991783" stop-color="#EB3861"/>
</linearGradient>
</defs>
</svg>
