<svg width="21" height="20" viewBox="0 0 21 20" fill="none" xmlns="http://www.w3.org/2000/svg">
<path d="M10.9941 0C9.01633 0 7.08293 0.58649 5.43844 1.6853C3.79395 2.78412 2.51223 4.3459 1.75535 6.17317C0.998473 8.00043 0.80044 10.0111 1.18629 11.9509C1.57214 13.8907 2.52455 15.6725 3.92308 17.0711C5.3216 18.4696 7.10343 19.422 9.04324 19.8079C10.9831 20.1937 12.9937 19.9957 14.821 19.2388C16.6482 18.4819 18.21 17.2002 19.3088 15.5557C20.4077 13.9112 20.9941 11.9778 20.9941 10C20.9941 8.68678 20.7355 7.38642 20.2329 6.17317C19.7304 4.95991 18.9938 3.85752 18.0652 2.92893C17.1366 2.00035 16.0342 1.26375 14.821 0.761205C13.6077 0.258658 12.3074 0 10.9941 0ZM14.1741 15.152C14.1368 15.2454 14.0799 15.3298 14.0073 15.3994C13.9347 15.469 13.848 15.5223 13.7531 15.5556C13.6582 15.589 13.5572 15.6016 13.457 15.5927C13.3568 15.5838 13.2597 15.5536 13.1721 15.504L10.4571 13.394L8.71515 15.002C8.67471 15.0319 8.62742 15.0511 8.57762 15.0579C8.52783 15.0647 8.47711 15.0589 8.43015 15.041L8.76414 12.052L8.77415 12.061L8.78115 12.002C8.78115 12.002 13.6661 7.554 13.8651 7.365C14.0671 7.176 14.0001 7.135 14.0001 7.135C14.0121 6.905 13.6391 7.135 13.6391 7.135L7.16615 11.299L4.47115 10.381C4.47115 10.381 4.05715 10.233 4.01815 9.906C3.97715 9.582 4.48415 9.406 4.48415 9.406L15.2011 5.148C15.2011 5.148 16.0821 4.756 16.0821 5.406L14.1741 15.152Z" fill="#1D1D1F"/>
</svg>
