<svg width="41" height="47" viewBox="0 0 41 47" fill="none" xmlns="http://www.w3.org/2000/svg">
<path d="M0.407966 33.6638L7.60913 45.8008C8.55583 47.3947 10.1043 47.3947 11.051 45.8008L18.256 33.6657C19.2027 32.0718 18.4285 30.7677 16.5351 30.7658L14.3281 30.7658L14.3281 18.0168C14.3281 17.3784 14.1989 16.7462 13.9477 16.1563C13.6965 15.5665 13.3283 15.0305 12.8642 14.5791C12.4001 14.1276 11.8491 13.7695 11.2427 13.5252C10.6363 13.2809 9.9864 13.1551 9.33005 13.1551C8.67369 13.1551 8.02376 13.2809 7.41736 13.5252C6.81096 13.7695 6.25998 14.1276 5.79586 14.5791C5.33175 15.0305 4.96359 15.5665 4.71241 16.1563C4.46124 16.7462 4.33196 17.3784 4.33196 18.0168L4.33196 30.7715L2.12888 30.7715C0.235485 30.7639 -0.548531 32.068 0.407966 33.6638Z" fill="url(#paint0_linear_238_674)"/>
<path d="M40.5962 13.3324L33.395 1.1954C32.4483 -0.398467 30.8999 -0.398467 29.9532 1.1954L22.7481 13.3305C21.8014 14.9244 22.5756 16.2285 24.469 16.2304H26.676V42.1345C26.676 43.4239 27.2026 44.6605 28.1399 45.5722C29.0772 46.484 30.3485 46.9962 31.6741 46.9962C32.9997 46.9962 34.271 46.484 35.2083 45.5722C36.1456 44.6605 36.6722 43.4239 36.6722 42.1345V16.2323H38.8812C40.7687 16.2323 41.5527 14.9282 40.5962 13.3324Z" fill="url(#paint1_linear_238_674)"/>
<defs>
<linearGradient id="paint0_linear_238_674" x1="18.2934" y1="22.3204" x2="-0.89909" y2="22.3495" gradientUnits="userSpaceOnUse">
<stop stop-color="#F1AA3C"/>
<stop offset="0.270896" stop-color="#EE8031"/>
<stop offset="0.991783" stop-color="#EB3861"/>
</linearGradient>
<linearGradient id="paint1_linear_238_674" x1="22.7108" y1="34.2681" x2="41.9034" y2="34.2471" gradientUnits="userSpaceOnUse">
<stop stop-color="#F1AA3C"/>
<stop offset="0.270896" stop-color="#EE8031"/>
<stop offset="0.991783" stop-color="#EB3861"/>
</linearGradient>
</defs>
</svg>
