<svg width="18" height="18" viewBox="0 0 18 18" fill="none" xmlns="http://www.w3.org/2000/svg">
<path d="M15.0752 7.42258C15.0952 5.01258 13.0427 2.80341 10.5002 2.49757C10.4452 2.49072 10.3905 2.48239 10.336 2.47257C10.2082 2.44811 10.0786 2.43417 9.9485 2.43091C9.42683 2.43091 9.28767 2.79757 9.251 3.01507C9.21517 3.22757 9.24933 3.40674 9.35183 3.54591C9.52433 3.78007 9.8285 3.82174 10.0727 3.85508C10.1435 3.86507 10.211 3.87424 10.2677 3.88674C12.5527 4.39757 13.3218 5.20008 13.6977 7.46591C13.7068 7.52091 13.711 7.58924 13.716 7.66174C13.7327 7.93258 13.766 8.49591 14.3718 8.49591C14.4218 8.49591 14.4768 8.49174 14.5335 8.48341C15.0968 8.39758 15.0793 7.88258 15.071 7.63508C15.0685 7.56508 15.066 7.49924 15.0727 7.45507C15.074 7.44402 15.0745 7.43288 15.0743 7.42174L15.0752 7.42258Z" fill="#1D1D1F"/>
<path d="M9.80017 1.61333C9.8685 1.61833 9.93184 1.62333 9.98517 1.63083C13.7377 2.20833 15.4635 3.98583 15.941 7.7675C15.9493 7.83167 15.951 7.91 15.9518 7.9925C15.9568 8.28833 15.9668 8.90333 16.6268 8.91583H16.6468C16.8543 8.91583 17.0185 8.85333 17.1368 8.73C17.3418 8.51583 17.3285 8.19667 17.316 7.94C17.3135 7.87667 17.311 7.8175 17.311 7.765C17.3593 3.89833 14.011 0.390833 10.1477 0.260833C10.131 0.260833 10.116 0.260833 10.101 0.263333C10.0858 0.265251 10.0705 0.266087 10.0552 0.265833C10.016 0.265833 9.96934 0.2625 9.9185 0.259167C9.8585 0.255 9.78934 0.25 9.7185 0.25C9.1035 0.25 8.98684 0.6875 8.97184 0.948333C8.93767 1.55083 9.52017 1.59333 9.80017 1.61333V1.61333ZM15.7602 12.655C15.6797 12.5938 15.5999 12.5316 15.521 12.4683C15.111 12.1383 14.6752 11.835 14.2543 11.5408L13.9918 11.3575C13.4518 10.9783 12.9668 10.7942 12.5085 10.7942C11.8902 10.7942 11.3518 11.1358 10.9068 11.8083C10.7102 12.1067 10.471 12.2517 10.1768 12.2517C9.97252 12.2445 9.77202 12.1943 9.5885 12.1042C7.84684 11.3142 6.60184 10.1025 5.89017 8.50333C5.546 7.73 5.65767 7.225 6.26267 6.81333C6.60684 6.58 7.246 6.14583 7.20184 5.31333C7.15017 4.36917 5.066 1.52667 4.18767 1.20417C3.81219 1.0672 3.4006 1.06602 3.02434 1.20083C2.01517 1.54 1.29184 2.13667 0.929337 2.92417C0.579337 3.68583 0.596004 4.58 0.974337 5.51C2.07017 8.19917 3.61017 10.5442 5.55267 12.4792C7.4535 14.3733 9.79017 15.9242 12.4968 17.09C12.741 17.195 12.9968 17.2525 13.1843 17.2942C13.2477 17.3083 13.3027 17.3208 13.3427 17.3317C13.3647 17.3376 13.3874 17.3407 13.4102 17.3408H13.4318C14.7052 17.3408 16.2343 16.1775 16.7035 14.8517C17.1152 13.69 16.3635 13.1158 15.7602 12.655V12.655ZM10.3635 4.68583C10.146 4.69083 9.69184 4.7025 9.53267 5.16417C9.45767 5.38083 9.46684 5.5675 9.55934 5.72167C9.69434 5.94667 9.9535 6.01667 10.1885 6.055C11.0427 6.19167 11.4818 6.66333 11.5693 7.54083C11.6102 7.94917 11.886 8.235 12.2385 8.235C12.2652 8.23496 12.292 8.23329 12.3185 8.23C12.7435 8.18 12.9493 7.8675 12.931 7.30167C12.9377 6.71167 12.6293 6.04167 12.1035 5.50833C11.5768 4.97333 10.9418 4.67167 10.3635 4.68583V4.68583Z" fill="#1D1D1F"/>
</svg>
