<?xml version="1.0" standalone="no"?>
<!DOCTYPE svg PUBLIC "-//W3C//DTD SVG 20010904//EN"
 "http://www.w3.org/TR/2001/REC-SVG-20010904/DTD/svg10.dtd">
<svg version="1.0" xmlns="http://www.w3.org/2000/svg"
 width="700.000000pt" height="700.000000pt" viewBox="0 0 700.000000 700.000000"
 preserveAspectRatio="xMidYMid meet">
<metadata>
Created by potrace 1.14, written by Peter Selinger 2001-2017
</metadata>
<g transform="translate(0.000000,700.000000) scale(0.100000,-0.100000)"
fill="#000000" stroke="none">
<path d="M1777 6894 c-1 -1 -38 -5 -82 -9 -166 -14 -345 -58 -517 -126 -272
-107 -581 -334 -748 -549 -19 -25 -37 -47 -40 -50 -12 -10 -98 -136 -120 -175
-72 -128 -93 -171 -135 -275 -43 -106 -91 -272 -101 -345 -3 -16 -7 -40 -9
-52 -3 -13 -9 -49 -13 -80 -10 -79 -9 -3473 1 -3548 102 -769 633 -1381 1377
-1589 30 -8 68 -17 84 -20 16 -3 52 -10 80 -15 28 -6 69 -13 91 -17 22 -5 841
-9 1820 -10 1868 -3 1840 -3 2055 41 104 21 268 74 356 115 36 16 67 30 69 30
9 0 158 88 225 133 168 112 321 258 444 422 209 279 313 531 374 905 9 61 11
3460 1 3535 -12 95 -17 127 -28 177 -6 24 -12 54 -15 68 -30 152 -139 406
-243 569 -144 225 -359 438 -587 580 -169 105 -408 205 -569 237 -10 2 -26 5
-35 8 -18 5 -47 11 -119 21 -23 3 -57 8 -75 11 -28 5 -3536 12 -3541 8z"/>
</g>
</svg>
